<svg width="1024" height="1024" viewBox="0 0 1024 1024" fill="none" xmlns="http://www.w3.org/2000/svg">
<g clip-path="url(#clip0_205_2363)" filter="url(#filter0_i_205_2363)">
<rect width="1024" height="1024" fill="#020618"/>
<path d="M758.897 1051.88C711.869 1051.88 667.117 1043.15 624.64 1025.71C582.163 1007.5 546.133 982.092 516.551 949.476C486.968 916.859 467.247 878.554 457.386 834.56L613.262 782.222C626.157 818.631 645.12 846.317 670.151 865.28C695.182 883.484 724.764 892.587 758.897 892.587C786.963 892.587 810.856 887.277 830.577 876.658C851.057 866.038 866.986 851.247 878.364 832.284C889.742 812.563 895.431 789.807 895.431 764.018C895.431 738.228 889.742 716.231 878.364 698.027C867.745 679.064 852.195 664.652 831.715 654.791C811.994 644.172 787.721 638.862 758.897 638.862C742.21 638.862 725.523 640.758 708.835 644.551C692.148 648.344 676.977 653.653 663.324 660.48L622.364 575.147L839.68 338.489H508.586V190.578H1037.65V327.111L814.648 580.836L820.337 509.155C871.158 509.155 915.152 519.775 952.32 541.013C990.245 561.493 1019.45 590.317 1039.93 627.484C1061.17 664.652 1071.79 707.887 1071.79 757.191C1071.79 813.321 1058.13 863.763 1030.83 908.515C1003.52 953.268 966.352 988.539 919.324 1014.33C872.296 1039.36 818.82 1051.88 758.897 1051.88Z" fill="white"/>
</g>
<defs>
<filter id="filter0_i_205_2363" x="0" y="0" width="1024" height="1024" filterUnits="userSpaceOnUse" color-interpolation-filters="sRGB">
<feFlood flood-opacity="0" result="BackgroundImageFix"/>
<feBlend mode="normal" in="SourceGraphic" in2="BackgroundImageFix" result="shape"/>
<feColorMatrix in="SourceAlpha" type="matrix" values="0 0 0 0 0 0 0 0 0 0 0 0 0 0 0 0 0 0 127 0" result="hardAlpha"/>
<feOffset/>
<feGaussianBlur stdDeviation="133.333"/>
<feComposite in2="hardAlpha" operator="arithmetic" k2="-1" k3="1"/>
<feColorMatrix type="matrix" values="0 0 0 0 0.973149 0 0 0 0 0.980043 0 0 0 0 0.986938 0 0 0 0.5 0"/>
<feBlend mode="normal" in2="shape" result="effect1_innerShadow_205_2363"/>
</filter>
<clipPath id="clip0_205_2363">
<rect width="1024" height="1024" fill="white"/>
</clipPath>
</defs>
</svg>
