<svg width="24" height="24" viewBox="0 0 24 24" fill="currentColor" xmlns="http://www.w3.org/2000/svg">
<path d="M12 2C12.5523 2 13 2.44772 13 3V10.9951H21.0049C21.5572 10.9951 22.0049 11.4428 22.0049 11.9951C22.0048 12.5473 21.5571 12.9951 21.0049 12.9951H13V21L12.9951 21.1025C12.9438 21.6067 12.5177 22 12 22C11.4823 22 11.0562 21.6067 11.0049 21.1025L11 21V12.9951H3.00488L2.90234 12.9902C2.39831 12.9389 2.00495 12.5127 2.00488 11.9951C2.00488 11.4775 2.39828 11.0514 2.90234 11L3.00488 10.9951H11V3C11 2.44772 11.4477 2 12 2Z" fill="currentColor"/>
</svg>
