<svg width="24" height="24" viewBox="0 0 24 24" fill="none" xmlns="http://www.w3.org/2000/svg">
<path d="M19.0908 9.00391C19.6407 9.05404 20.0461 9.54089 19.9961 10.0908L18.9961 21.0908C18.9491 21.6058 18.5171 22 18 22H6C5.48289 22 5.05086 21.6058 5.00391 21.0908L4.00391 10.0908C3.95391 9.54089 4.3593 9.05404 4.90918 9.00391C5.45911 8.95391 5.94596 9.3593 5.99609 9.90918L6.91309 20H17.0869L18.0039 9.90918C18.054 9.3593 18.5409 8.95391 19.0908 9.00391Z" fill="white"/>
<path d="M10 10C10.5523 10 11 10.4477 11 11V17C11 17.5523 10.5523 18 10 18C9.44772 18 9 17.5523 9 17V11C9 10.4477 9.44772 10 10 10Z" fill="white"/>
<path d="M14 10C14.5523 10 15 10.4477 15 11V17C15 17.5523 14.5523 18 14 18C13.4477 18 13 17.5523 13 17V11C13 10.4477 13.4477 10 14 10Z" fill="white"/>
<path d="M12 2C12.5523 2 13 2.44772 13 3V5H20C20.5523 5 21 5.44772 21 6C21 6.55228 20.5523 7 20 7H4C3.44772 7 3 6.55228 3 6C3 5.44772 3.44772 5 4 5H11V3C11 2.44772 11.4477 2 12 2Z" fill="white"/>
</svg>
